# xmcd
#
# Track frame offsets:
#	150
#	11147
#	26234
#	41122
#	55281
#	70949
#
# Disc length: 1208 seconds
# Revision: 0
# Processed by: cddbd v1.5.2PL0 Copyright (c) Steve Scherf et al.
# Submitted via: dBpowerAMP V12.0
#
DISCID=5304b606
DTITLE=Wes Lee - Wood and Steel
DYEAR=2013
DGENRE=Blues
TTITLE0=Sight for Sore Eyes
TTITLE1=My Gal
TTITLE2=Will You Be Waiting
TTITLE3=Gray Sky Blues
TTITLE4=Take Me Back
TTITLE5=Ebb and Flow
EXTD=
EXTT0=
EXTT1=
EXTT2=
EXTT3=
EXTT4=
EXTT5=
PLAYORDER=
